<?xml version="1.0" standalone="no"?><!DOCTYPE svg PUBLIC "-//W3C//DTD SVG 1.1//EN" "http://www.w3.org/Graphics/SVG/1.1/DTD/svg11.dtd"><svg t="1609318233428" class="icon" viewBox="0 0 1024 1024" version="1.1" xmlns="http://www.w3.org/2000/svg" p-id="21858" xmlns:xlink="http://www.w3.org/1999/xlink" width="200" height="200"><defs><style type="text/css"></style></defs><path d="M959.146667 428.942222L568.888889 118.328889a91.022222 91.022222 0 0 0-108.657778 0L65.422222 428.942222A20.48 20.48 0 0 0 56.888889 455.111111a23.324444 23.324444 0 0 0 19.342222 15.36h45.511111v382.293333a72.248889 72.248889 0 0 0 76.231111 73.955556h227.555556a20.48 20.48 0 0 0 21.617778-21.617778v-159.288889A62.577778 62.577778 0 0 1 512 682.666667h4.551111a62.577778 62.577778 0 0 1 63.146667 60.871111v156.444444a20.48 20.48 0 0 0 21.617778 21.617778h227.555555a68.835556 68.835556 0 0 0 71.68-73.955556V467.626667h43.235556A21.048889 21.048889 0 0 0 967.111111 455.111111a20.48 20.48 0 0 0-6.257778-23.893333z" p-id="21859"></path></svg>