<?xml version="1.0" standalone="no"?><!DOCTYPE svg PUBLIC "-//W3C//DTD SVG 1.1//EN" "http://www.w3.org/Graphics/SVG/1.1/DTD/svg11.dtd"><svg t="1609311210777" class="icon" viewBox="0 0 1024 1024" version="1.1" xmlns="http://www.w3.org/2000/svg" p-id="17274" xmlns:xlink="http://www.w3.org/1999/xlink" width="200" height="200"><defs><style type="text/css"></style></defs><path d="M512 1024c-282.652055 0-512-229.347945-512-512S229.347945 0 512 0s512 229.347945 512 512-229.347945 512-512 512z m54.005479-442.564384c-1.40274-0.70137-2.10411-1.40274-2.805479-1.402739v-22.443836c2.10411-2.10411 4.208219-3.506849 6.312329-5.610959 6.312329-6.312329 11.923288-13.326027 17.534246-21.041096 1.40274-2.10411 3.506849-4.909589 4.909589-7.013698 0-0.70137 0.70137-0.70137 0.70137-1.40274 1.40274-2.10411 2.805479-4.208219 3.50685-6.312329l0.701369-1.40274c1.40274-2.10411 2.805479-4.208219 3.50685-7.013698 0-0.70137 0.70137-0.70137 0.70137-1.40274l4.208219-8.416438c16.832877-5.610959 29.457534-22.443836 32.964383-34.367124 7.715068-25.950685 0.70137-35.068493-11.221917-37.873972v-2.10411c2.10411-23.846575 0-72.241096 0-72.241096 0-93.282192-91.178082-101.69863-121.336987-102.4H497.271233c-60.317808 1.40274-80.657534 0-87.671233-3.506849 0 9.819178 2.10411 18.936986 6.312329 27.353425-21.041096 14.728767-37.172603 39.276712-37.172603 78.553424 0 0-2.10411 47.693151 0 72.241096v2.10411c-11.923288 2.805479-18.936986 11.923288-11.221918 37.873972 3.506849 12.624658 16.832877 29.457534 34.367124 35.068494 10.520548 22.443836 24.547945 42.783562 41.380821 57.512328v24.547946c-0.70137 0-4.208219 2.10411-9.819178 6.312328-34.367123 21.041096-70.838356 39.276712-108.712328 54.70685l-28.054795 11.221917c-21.742466 9.117808-38.575342 26.652055-46.290411 48.394521l-3.506849 23.145205c-6.312329 18.235616 7.715068 37.172603 27.353424 37.172603h309.30411c-24.547945-26.652055-39.276712-62.421918-39.276712-101.69863 0-29.457534 7.715068-56.109589 21.742465-78.553425z m122.739726-43.484931c-65.227397 0-117.830137 54.005479-117.830137 120.635616s52.60274 120.635616 117.830137 120.635617 117.830137-54.005479 117.830137-120.635617-52.60274-120.635616-117.830137-120.635616zM598.969863 657.884932c0-51.2 40.679452-93.282192 90.476712-93.282192 18.936986 0 36.471233 6.312329 51.2 16.131507l-125.545205 129.052054c-10.520548-14.027397-16.131507-32.263014-16.131507-51.901369z m90.476712 93.282191c-21.041096 0-40.679452-7.715068-56.109589-20.339726l126.947946-130.454794c11.923288 16.131507 19.638356 35.769863 19.638356 57.512329-0.70137 51.90137-40.679452 93.282192-90.476713 93.282191z" fill="#FF6100" p-id="17275"></path></svg>