<?xml version="1.0" standalone="no"?><!DOCTYPE svg PUBLIC "-//W3C//DTD SVG 1.1//EN" "http://www.w3.org/Graphics/SVG/1.1/DTD/svg11.dtd"><svg t="1607914783776" class="icon" viewBox="0 0 1024 1024" version="1.1" xmlns="http://www.w3.org/2000/svg" p-id="3106" xmlns:xlink="http://www.w3.org/1999/xlink" width="200" height="200"><defs><style type="text/css"></style></defs><path d="M419.8 379.42l-1.15 1.98c1.49-0.52 2.94-1.18 4.36-1.98h-3.21zM484 450.51h14.75l-18.03-31.23-11.34 19.64A21.43 21.43 0 0 1 484 450.51zM467.09 442.9l-4.39 7.61h16.34c-2.64-4.05-6.95-6.92-11.95-7.61z" fill="#FFFFFF" p-id="3107"></path><path d="M137.86 917.9c-14.53 0-26.36-11.82-26.36-26.36 0-14.53 11.82-26.35 26.36-26.35h769.5V576.66c0-14.53 11.82-26.36 26.36-26.36 14.53 0 26.35 11.82 26.35 26.36v314.88c0 14.53-11.82 26.36-26.35 26.36H137.86zM90.29 805.44c-14.53 0-26.36-11.82-26.36-26.36v-17.3c0-13.46 10.14-24.59 23.18-26.17-13.04-1.57-23.18-12.71-23.18-26.17v-73.96c0-14.53 11.82-26.36 26.36-26.36s26.36 11.82 26.36 26.36v73.96c0 13.46-10.14 24.6-23.18 26.17 13.04 1.58 23.18 12.71 23.18 26.17v17.3c-0.01 14.54-11.83 26.36-26.36 26.36z m0-261.68c-14.53 0-26.36-11.82-26.36-26.36v-8.65c0-14.53 11.82-26.36 26.36-26.36s26.36 11.82 26.36 26.36v8.65c-0.01 14.54-11.83 26.36-26.36 26.36z m843.43-2.16c-14.53 0-26.36-11.82-26.36-26.36v-8.65c0-14.53 11.82-26.35 26.36-26.35 14.53 0 26.35 11.82 26.35 26.35v8.65c0 14.54-11.82 26.36-26.35 26.36zM90.29 473.69c-14.53 0-26.36-11.82-26.36-26.36V132.46c0-14.53 11.82-26.36 26.36-26.36h795.85c14.53 0 26.35 11.82 26.35 26.36 0 14.53-11.82 26.36-26.35 26.36h-769.5v288.52c0 14.53-11.82 26.35-26.35 26.35z m843.43-58.82c-14.53 0-26.36-11.82-26.36-26.36v-73.96c0-13.47 10.15-24.61 23.21-26.17-13.06-1.56-23.21-12.7-23.21-26.17v-17.3c0-14.53 11.82-26.36 26.36-26.36 14.53 0 26.35 11.82 26.35 26.36v17.3c0 13.47-10.16 24.61-23.21 26.17 13.05 1.56 23.21 12.7 23.21 26.17v73.96c0 14.54-11.82 26.36-26.35 26.36z" fill="#025AFA" p-id="3108"></path><path d="M439.34 410.57c-2.6 0-5.63-0.43-8.22-1.73l-56.22-25.95c-9.95-4.33-13.84-16-9.52-25.95 4.33-9.95 16-13.84 25.95-9.52l56.23 25.95c9.95 4.33 13.84 16 9.52 25.95-3.47 6.93-10.39 11.25-17.74 11.25z m129.75 21.63c-9.08 0-16.87-6.05-19.03-15.14-2.6-10.38 4.32-20.76 14.71-23.36l95.16-21.63c10.38-2.59 20.76 4.33 23.36 14.71 2.59 10.38-4.33 20.76-14.71 23.36l-95.16 21.63c-1.73-0.01-3.03 0.43-4.33 0.43z m73.53 211.94c-6.05 0-11.68-2.6-15.57-7.79l-99.48-134.09a19.382 19.382 0 0 1 3.89-27.25 19.382 19.382 0 0 1 27.25 3.89L658.2 613a19.382 19.382 0 0 1-3.89 27.25c-3.9 2.59-7.79 3.89-11.69 3.89z m-289.79 0c-3.89 0-8.22-1.3-11.68-3.89a19.382 19.382 0 0 1-3.89-27.25l99.48-134.08a19.382 19.382 0 0 1 27.25-3.89 19.382 19.382 0 0 1 3.89 27.25L368.4 636.35c-3.89 4.76-9.95 7.79-15.57 7.79z m0 0" fill="#FF8902" p-id="3109"></path><path d="M914.25 576.66S713.45 549.51 568.7 710.8 157.33 852.62 137.86 872.08c-19.46 19.46 795.85 38.93 795.85 38.93l-19.46-334.35z" fill="#E7F3FF" p-id="3110"></path><path d="M90.29 466.8c-10.81 0-19.47-8.65-19.47-19.46V132.46c0-10.81 8.65-19.46 19.47-19.46h795.85a19.38 19.38 0 0 1 19.46 19.46 19.38 19.38 0 0 1-19.46 19.46H109.75v295.41c0 10.82-8.65 19.47-19.46 19.47z m0 262.12c-10.81 0-19.47-8.65-19.47-19.47v-73.96c0-10.81 8.65-19.46 19.47-19.46 10.81 0 19.46 8.66 19.46 19.46v73.96c0 10.81-8.65 19.47-19.46 19.47z m0 69.63c-10.81 0-19.47-8.65-19.47-19.47v-17.3c0-10.81 8.65-19.47 19.47-19.47 10.81 0 19.46 8.65 19.46 19.47v17.3c0 10.82-8.65 19.47-19.46 19.47z m0-261.68c-10.81 0-19.47-8.65-19.47-19.47v-8.65c0-10.81 8.65-19.46 19.47-19.46a19.38 19.38 0 0 1 19.46 19.46v8.65c0 10.82-8.65 19.47-19.46 19.47z m843.43 374.14H137.86a19.38 19.38 0 0 1-19.46-19.46 19.38 19.38 0 0 1 19.46-19.46h776.39V576.66a19.38 19.38 0 0 1 19.46-19.46 19.38 19.38 0 0 1 19.46 19.46v314.88a19.368 19.368 0 0 1-19.45 19.47z m0-503.03a19.38 19.38 0 0 1-19.46-19.46v-73.96a19.38 19.38 0 0 1 19.46-19.46 19.38 19.38 0 0 1 19.46 19.46v73.96c0 10.8-8.65 19.46-19.46 19.46z m0-126.3a19.38 19.38 0 0 1-19.46-19.46v-17.3a19.38 19.38 0 0 1 19.46-19.46 19.38 19.38 0 0 1 19.46 19.46v17.3a19.38 19.38 0 0 1-19.46 19.46z m0 253.03c-10.81 0-19.46-8.65-19.46-19.47v-8.65a19.38 19.38 0 0 1 19.46-19.46 19.38 19.38 0 0 1 19.46 19.46v8.65c0 10.82-8.65 19.47-19.46 19.47z m0 0" fill="#025AFA" p-id="3111"></path><path d="M332.07 408.84c-46.28 0-83.91-37.63-83.91-83.91 0-46.28 37.63-83.91 83.91-83.91 46.28 0 83.91 37.63 83.91 83.91 0 46.28-37.63 83.91-83.91 83.91z m0-128.89c-25.09 0-44.99 20.33-44.99 44.98 0 25.09 20.33 44.98 44.99 44.98 25.08 0 44.98-20.33 44.98-44.98s-20.33-44.98-44.98-44.98z m394.9 182.09c-46.28 0-83.91-37.63-83.91-83.91 0-46.28 37.63-83.91 83.91-83.91 46.28 0 83.91 37.63 83.91 83.91 0 46.28-37.2 83.91-83.91 83.91z m0-128.89c-25.09 0-44.98 20.33-44.98 44.98 0 24.66 20.33 44.98 44.98 44.98 24.66 0 44.98-20.33 44.98-44.98s-19.89-44.98-44.98-44.98zM309.14 773.9c-46.28 0-83.91-37.63-83.91-83.91 0-46.28 37.63-83.91 83.91-83.91 46.28 0 83.91 37.63 83.91 83.91 0.01 46.28-37.62 83.91-83.91 83.91z m0-129.33c-25.09 0-44.98 20.34-44.98 44.99 0 25.08 20.33 44.98 44.98 44.98s44.98-20.33 44.98-44.98c0.01-24.66-19.89-44.99-44.98-44.99z m193.78-132.79c-46.28 0-83.91-37.63-83.91-83.91 0-46.28 37.63-83.91 83.91-83.91 46.28 0 83.91 37.63 83.91 83.91 0 46.28-37.63 83.91-83.91 83.91z m0-129.32c-25.09 0-44.98 20.33-44.98 44.98 0 25.09 20.33 44.98 44.98 44.98 25.09 0 44.98-20.33 44.98-44.98s-19.9-44.98-44.98-44.98z m193.77 364.62c-46.28 0-83.91-37.63-83.91-83.91 0-46.28 37.63-83.91 83.91-83.91 46.28 0 83.91 37.63 83.91 83.91 0 46.28-37.63 83.91-83.91 83.91z m0-128.89c-25.09 0-44.98 20.33-44.98 44.98 0 25.09 20.33 44.98 44.98 44.98s44.98-20.33 44.98-44.98c0-25.09-19.89-44.98-44.98-44.98z m0 0" fill="#FF8902" p-id="3112"></path></svg>