<?xml version="1.0" standalone="no"?><!DOCTYPE svg PUBLIC "-//W3C//DTD SVG 1.1//EN" "http://www.w3.org/Graphics/SVG/1.1/DTD/svg11.dtd"><svg t="1607914776183" class="icon" viewBox="0 0 1024 1024" version="1.1" xmlns="http://www.w3.org/2000/svg" p-id="2962" xmlns:xlink="http://www.w3.org/1999/xlink" width="200" height="200"><defs><style type="text/css"></style></defs><path d="M921.571968 401.450516l16.429289 243.004966q0 9.746188-0.556925 19.213914H837.383464v59.126877h8.632338a23.205211 23.205211 0 0 1 0 46.410421h-8.632338v7.70413a23.11239 23.11239 0 0 1 0 45.575034l10.860038 38.242187c0 45.296571-37.128337 92.171097-81.960804 92.171097H649.421258l-4.826684 57.084818H220.588965V632.295951A420.8497 420.8497 0 0 1 162.8544 417.694163v-16.243647a391.05421 391.05421 0 0 1 8.168235-79.269l204.205853 207.733046 289.136925-294.242071-114.355278-115.840412H284.264063A386.227526 386.227526 0 0 1 550.381418 13.923498c214.044863 0 371.19055 173.482155 371.19055 387.527018zM821.139816 516.362719a32.672937 32.672937 0 1 0-32.765757 32.765757 32.765757 32.765757 0 0 0 32.765757-32.765757z" fill="#FFDB93" p-id="2963"></path><path d="M664.365413 235.672491l-289.136925 294.242071 124.37993-294.242071h164.756995zM250.848559 235.672491l124.379929 294.242071-204.205853-207.733046-85.023892-86.509025h164.849816zM375.228488 119.832079l-124.379929 115.840412-49.009405-115.840412h173.389334z" fill="#06C7CA" p-id="2964"></path><path d="M550.010135 119.832079l114.355278 115.840412H499.608418l48.916584-115.840412h1.485133z" fill="#D3EEE4" p-id="2965"></path><path d="M548.525002 119.832079l-48.916584 115.840412-124.37993-115.840412h173.296514z" fill="#06C7CA" p-id="2966"></path><path d="M201.839154 119.832079l49.009405 115.840412H85.998743l115.840411-115.840412zM499.608418 235.672491l-124.37993 294.242071-124.379929-294.242071h248.759859z" fill="#D3EEE4" p-id="2967"></path><path d="M644.594574 1023.999907H220.588965a13.923126 13.923126 0 0 1-13.923127-13.923126V636.101606A436.25796 436.25796 0 0 1 148.931274 417.694163v-16.243647a406.46247 406.46247 0 0 1 8.446697-82.053625l27.289327 5.662071a378.801859 378.801859 0 0 0-7.889771 76.484375V417.694163a408.411708 408.411708 0 0 0 56.24943 207.733046 13.923126 13.923126 0 0 1 1.949238 7.054384v363.857703H631.785297l3.712834-44.368363a13.923126 13.923126 0 0 1 13.830306-12.716455h116.954261c37.685262 0 67.016648-40.655529 68.037678-76.391554L823.924442 826.105871a13.923126 13.923126 0 0 1 10.952859-17.54314 9.282084 9.282084 0 0 0 0-18.564168 13.923126 13.923126 0 0 1-11.509784-13.737485v-7.70413a13.923126 13.923126 0 0 1 13.923126-13.923126h8.632338a9.282084 9.282084 0 0 0 0-18.564169h-8.632338a13.923126 13.923126 0 0 1-13.923126-13.923126v-58.477131a13.923126 13.923126 0 0 1 13.923126-13.923126h86.694667v-4.826684L907.4632 402.378724v-0.928208C907.4632 191.953874 750.688797 27.846624 550.381418 27.846624a372.118758 372.118758 0 0 0-256.556809 102.102927l-19.121093-20.234944A399.87219 399.87219 0 0 1 550.381418 0.000371C766.189878 0.000371 935.309453 176.359972 935.309453 400.986411l16.429289 242.540862v0.928209q0 10.117472-0.556925 20.049302A13.923126 13.923126 0 0 1 937.444332 677.592522h-86.137742v31.651908a37.128337 37.128337 0 0 1 12.530814 69.42999 37.128337 37.128337 0 0 1-9.282084 51.886851l7.518488 26.546761a13.830306 13.830306 0 0 1 0.556925 3.805655c0 50.123255-41.026812 106.094223-95.88393 106.094223H662.230534l-3.712834 44.368363a13.923126 13.923126 0 0 1-13.923126 12.623634z" fill="#18252F" p-id="2968"></path><path d="M788.374059 563.051603a46.410421 46.410421 0 1 1 46.410421-46.410422 46.410421 46.410421 0 0 1-46.410421 46.410422z m0-65.531515a18.564169 18.564169 0 1 0 18.564168 18.564168 18.564169 18.564169 0 0 0-18.564168-18.564168zM250.848559 221.749364h248.759859v27.846253h-248.759859z" fill="#18252F" p-id="2969"></path><path d="M489.769408 245.882783L365.760762 129.949551a13.923126 13.923126 0 0 1 9.282085-24.133419h173.482155v27.846253H410.593229l98.482914 91.706992z" fill="#18252F" p-id="2970"></path><path d="M654.433583 245.418679l-100.803435-102.102927L512.417694 241.334562l-25.618553-10.860038 48.916584-115.840412a13.923126 13.923126 0 0 1 12.809277-8.539518h1.485133a13.923126 13.923126 0 0 1 9.93183 4.176938l114.355278 115.65477zM76.224708 225.777789l115.840412-115.840412 19.696582 19.687301-115.840411 115.840412z" fill="#18252F" p-id="2971"></path><path d="M250.848559 249.595617a13.737485 13.737485 0 0 1-2.877446 0 13.923126 13.923126 0 0 1-9.93183-8.261055L189.029878 125.215688a13.923126 13.923126 0 0 1 12.994918-19.306735h173.203692a13.923126 13.923126 0 0 1 9.282085 24.133419L260.316285 245.882783a13.923126 13.923126 0 0 1-9.467726 3.712834z m-27.846253-115.840411l33.04422 78.155149 83.538759-78.155149z" fill="#18252F" p-id="2972"></path><path d="M375.228488 543.837688a13.923126 13.923126 0 0 1-9.93183-4.176938L76.066913 245.418679a13.923126 13.923126 0 0 1 9.93183-23.669315h164.849816a13.923126 13.923126 0 0 1 12.809277 8.539518L387.666481 524.530953a13.923126 13.923126 0 0 1-12.809276 19.306735zM119.228604 249.595617l214.78743 218.500264-92.820842-218.500264z" fill="#18252F" p-id="2973"></path><path d="M375.228488 543.837688a13.923126 13.923126 0 0 1-12.809276-19.306735l124.379929-294.242071a13.923126 13.923126 0 0 1 12.809277-8.539518h164.756995a13.923126 13.923126 0 0 1 9.93183 23.669315l-289.136924 294.242071a13.923126 13.923126 0 0 1-9.931831 4.176938z m133.662014-294.242071l-92.356739 218.500264 214.601789-218.500264z" fill="#18252F" p-id="2974"></path></svg>