<?xml version="1.0" standalone="no"?><!DOCTYPE svg PUBLIC "-//W3C//DTD SVG 1.1//EN" "http://www.w3.org/Graphics/SVG/1.1/DTD/svg11.dtd"><svg t="1607914718175" class="icon" viewBox="0 0 1024 1024" version="1.1" xmlns="http://www.w3.org/2000/svg" p-id="2638" xmlns:xlink="http://www.w3.org/1999/xlink" width="200" height="200"><defs><style type="text/css"></style></defs><path d="M950.857143 0a73.142857 73.142857 0 0 1 73.142857 73.142857v877.714286a73.142857 73.142857 0 0 1-73.142857 73.142857H73.142857a73.142857 73.142857 0 0 1-73.142857-73.142857V73.142857a73.142857 73.142857 0 0 1 73.142857-73.142857h877.714286z m-36.571429 109.714286H109.714286v665.307428l245.979428-217.307428a73.142857 73.142857 0 0 1 100.315429 3.291428l235.556571 237.238857a32.475429 32.475429 0 0 0 46.08 0 32.914286 32.914286 0 0 0 0-46.445714l-107.52-108.251428a54.893714 54.893714 0 0 1 0-77.385143 54.125714 54.125714 0 0 1 76.8 0L914.285714 775.021714V109.714286z m-310.857143 73.142857a91.428571 91.428571 0 1 1 0 182.857143 91.428571 91.428571 0 0 1 0-182.857143z" fill="#ffffff" p-id="2639"></path></svg>