<?xml version="1.0" standalone="no"?><!DOCTYPE svg PUBLIC "-//W3C//DTD SVG 1.1//EN" "http://www.w3.org/Graphics/SVG/1.1/DTD/svg11.dtd"><svg class="icon" width="200px" height="191.58px" viewBox="0 0 1069 1024" version="1.1" xmlns="http://www.w3.org/2000/svg"><path d="M850.823529 737.882353l-225.882353-225.882353-67.764705 67.764706-128-128-286.117647 286.117647z" fill="#A3D4FF" /><path d="M971.294118 752.941176h-873.411765V271.058824h873.411765v481.882352z m-843.294118-30.117647h813.176471V301.176471h-813.176471v421.647058zM858.352941 265.035294C780.047059 164.141176 662.588235 105.411765 534.588235 105.411765S289.129412 164.141176 210.823529 265.035294l-24.094117-18.070588C271.058824 138.541176 397.552941 75.294118 534.588235 75.294118c137.035294 0 263.529412 63.247059 346.352941 171.670588L858.352941 265.035294zM534.588235 948.705882c-137.035294 0-263.529412-63.247059-346.352941-171.670588l24.094118-18.070588C289.129412 859.858824 406.588235 918.588235 534.588235 918.588235 662.588235 918.588235 780.047059 859.858824 858.352941 758.964706l24.094118 18.070588C798.117647 885.458824 671.623529 948.705882 534.588235 948.705882z" fill="#2A5082" /><path d="M655.058824 260.517647c-30.117647-96.376471-75.294118-155.105882-120.470589-155.105882s-90.352941 57.223529-120.470588 155.105882l-28.611765-9.035294C418.635294 140.047059 474.352941 75.294118 534.588235 75.294118s115.952941 64.752941 150.588236 176.188235l-30.117647 9.035294zM534.588235 948.705882c-60.235294 0-115.952941-64.752941-150.588235-176.188235l28.611765-9.035294c30.117647 96.376471 75.294118 155.105882 120.470588 155.105882s90.352941-57.223529 120.470588-155.105882l28.611765 9.035294C650.541176 883.952941 594.823529 948.705882 534.588235 948.705882zM840.282353 748.423529L624.941176 533.082353l-49.694117 49.694118-21.082353-21.082353 70.77647-70.776471 236.42353 236.423529z" fill="#2A5082" /><path d="M153.6 748.423529l-21.082353-21.082353 296.658824-296.658823 191.247058 191.247059-21.082353 21.082353-170.164705-170.164706z" fill="#2A5082" /><path d="M731.151537 453.272443a52.705882 52.705882 0 1 0 103.841163-18.128787 52.705882 52.705882 0 1 0-103.841163 18.128787Z" fill="#A3D4FF" /><path d="M783.058824 512c-37.647059 0-67.764706-30.117647-67.764706-67.764706s30.117647-67.764706 67.764706-67.764706 67.764706 30.117647 67.764705 67.764706-30.117647 67.764706-67.764705 67.764706z m0-105.411765c-21.082353 0-37.647059 16.564706-37.647059 37.647059S761.976471 481.882353 783.058824 481.882353s37.647059-16.564706 37.647058-37.647059S804.141176 406.588235 783.058824 406.588235z" fill="#2A5082" /></svg>