<?xml version="1.0" standalone="no"?><!DOCTYPE svg PUBLIC "-//W3C//DTD SVG 1.1//EN" "http://www.w3.org/Graphics/SVG/1.1/DTD/svg11.dtd"><svg class="icon" width="200px" height="200.00px" viewBox="0 0 1024 1024" version="1.1" xmlns="http://www.w3.org/2000/svg"><path d="M973.66 1024h-17.324V17.324H67.664V1024H50.34V8.662A8.66 8.66 0 0 1 59.002 0h905.996a8.66 8.66 0 0 1 8.662 8.662V1024z" fill="#4A555F" /><path d="M841.184 248.298H182.82a8.66 8.66 0 0 1-8.662-8.662V119.944a8.66 8.66 0 0 1 8.662-8.662h658.364a8.66 8.66 0 0 1 8.662 8.662v119.692a8.664 8.664 0 0 1-8.662 8.662z m-649.702-17.324h641.04V128.606H191.482v102.368z" fill="#4A555F" /><path d="M211.692 148.816h600.618v61.948H211.692z" fill="#FFD452" /><path d="M774.15 662.71H559.566a8.66 8.66 0 0 1-8.662-8.662v-82.576a8.664 8.664 0 0 1 8.662-8.662h40.016l-87.596-85.002-87.602 85.002h40.078a8.66 8.66 0 0 1 8.662 8.662v82.576a8.66 8.66 0 0 1-8.662 8.662H249.878c-41.744 0-75.704-33.962-75.704-75.706v-183.226c0-41.744 33.96-75.704 75.704-75.704h524.272c41.748 0 75.706 33.96 75.706 75.704v183.226c0 41.744-33.958 75.706-75.706 75.706z m-205.922-17.324h205.922c32.194 0 58.382-26.192 58.382-58.382v-183.226c0-32.192-26.188-58.38-58.382-58.38H249.878c-32.192 0-58.38 26.188-58.38 58.38v183.226c0 32.192 26.188 58.382 58.38 58.382H455.8v-65.252h-52.78a8.664 8.664 0 0 1-6.032-14.88l108.966-105.736a8.66 8.66 0 0 1 12.062 0l108.966 105.736a8.664 8.664 0 1 1-6.034 14.88h-52.722v65.252z" fill="#4A555F" /><path d="M588.44 625.174v-24.83h103.722l-180.176-174.84-180.182 174.84h103.784v24.83h-185.71c-21.046 0-38.17-17.124-38.17-38.172V403.78c0-21.048 17.124-38.172 38.17-38.172h524.272c21.046 0 38.172 17.124 38.172 38.172v183.224c0 21.048-17.126 38.172-38.172 38.172H588.44z" fill="#F58E6F" /><path d="M559.562 745.206H464.44a8.66 8.66 0 0 1-8.662-8.662v-156.39h-52.736a8.66 8.66 0 0 1-6.034-14.876l108.958-105.76a8.656 8.656 0 0 1 12.068 0l108.96 105.76a8.654 8.654 0 0 1 1.99 9.468 8.66 8.66 0 0 1-8.024 5.408h-52.738v156.39a8.66 8.66 0 0 1-8.66 8.662z m-86.462-17.324h77.798v-156.39a8.664 8.664 0 0 1 8.662-8.662h40.04L512 477.802l-87.596 85.028h40.036a8.66 8.66 0 0 1 8.662 8.662v156.39z" fill="#4A555F" /><path d="M493.312 707.67V542.62h-19.07L512 505.97l37.76 36.65h-19.072v165.05z" fill="#71CCE0" /><path d="M182.82 831.372h658.364v17.324H182.82zM182.82 955.216h658.364v17.324H182.82zM182.82 1001.184h658.364v17.324H182.82z" fill="#4A555F" /></svg>