<?xml version="1.0" standalone="no"?><!DOCTYPE svg PUBLIC "-//W3C//DTD SVG 1.1//EN" "http://www.w3.org/Graphics/SVG/1.1/DTD/svg11.dtd"><svg class="icon" width="200px" height="200.00px" viewBox="0 0 1024 1024" version="1.1" xmlns="http://www.w3.org/2000/svg"><path d="M885.248 983.594H288.734a8.006 8.006 0 0 1-8.006-8.006V56.48a8.006 8.006 0 0 1 8.006-8.006h596.514c33.174 0 60.162 26.99 60.162 60.164v814.79c0 33.176-26.988 60.166-60.162 60.166z m-588.51-16.012h588.508c24.346 0 44.15-19.808 44.15-44.154V108.64c0-24.346-19.806-44.154-44.15-44.154H296.738v903.096z" fill="#4A555F" /><path d="M885.248 83.15h-569.84V948.88h569.842c14.036 0 25.458-11.42 25.458-25.458V108.662c-0.002-14.09-11.422-25.512-25.46-25.512zM607.4 717.838c-117.682 0-213.43-95.748-213.43-213.378 0-117.684 95.748-213.376 213.43-213.376 117.63 0 213.378 95.694 213.378 213.376-0.002 117.63-95.748 213.378-213.378 213.378z" fill="#FFD452" /><path d="M288.748 983.57H173.412c-33.196 0-60.204-26.982-60.204-60.146v-105.942a8.006 8.006 0 0 1 8.006-8.006h43.66c7.782 0 15.074-3.026 20.524-8.522 5.524-5.528 8.558-12.842 8.558-20.622 0-16.038-13.046-29.086-29.082-29.086h-43.66a8.006 8.006 0 0 1-8.006-8.006v-102.952a8.006 8.006 0 0 1 8.006-8.006h43.66c7.772 0 15.068-3.016 20.546-8.49a28.95 28.95 0 0 0 8.538-20.596c0-16.068-13.046-29.142-29.082-29.142h-43.66a8.006 8.006 0 0 1-8.006-8.006v-102.898a8.006 8.006 0 0 1 8.006-8.006h43.66c7.786 0 15.074-3.026 20.52-8.52 5.53-5.53 8.564-12.846 8.564-20.622 0-16.038-13.046-29.086-29.082-29.086h-43.66a8.006 8.006 0 0 1-8.006-8.006v-102.9a8.006 8.006 0 0 1 8.006-8.006h43.66c7.782 0 15.074-3.026 20.524-8.522 5.524-5.53 8.558-12.846 8.558-20.618 0-16.068-13.046-29.14-29.082-29.14h-43.66a8.006 8.006 0 0 1-8.006-8.006v-103.06c0-33.196 27.008-60.204 60.204-60.204h115.336a8.006 8.006 0 0 1 8.006 8.006v919.1a8.012 8.012 0 0 1-8.01 8.01zM129.22 825.488v97.936c0 24.338 19.826 44.136 44.192 44.136h107.33V64.47H173.412c-24.366 0-44.192 19.824-44.192 44.192v95.054h35.656c24.866 0 45.094 20.254 45.094 45.152 0 12.05-4.696 23.386-13.228 31.918-8.46 8.526-19.784 13.234-31.866 13.234H129.22v86.89h35.656c24.866 0 45.094 20.23 45.094 45.096a44.84 44.84 0 0 1-13.228 31.918c-8.454 8.526-19.78 13.234-31.866 13.234H129.22v86.886h35.656c24.866 0 45.094 20.256 45.094 45.154 0 12.052-4.696 23.386-13.228 31.916-8.5 8.5-19.816 13.182-31.866 13.182H129.22v86.942h35.656c24.866 0 45.094 20.23 45.094 45.096a44.834 44.834 0 0 1-13.228 31.92c-8.46 8.526-19.784 13.234-31.866 13.234H129.22z" fill="#4A555F" /><path d="M173.412 948.88c-14.068 0-25.512-11.42-25.512-25.456v-79.256h16.976c17.1 0 33.132-6.668 45.146-18.776 11.992-11.996 18.632-28.022 18.632-45.058 0-35.168-28.608-63.776-63.78-63.776H147.9v-49.582h16.976c17.042 0 33.05-6.622 45.074-18.648 12.066-12.068 18.706-28.092 18.706-45.128 0-35.196-28.608-63.832-63.78-63.832H147.9v-49.53h16.976c17.1 0 33.132-6.668 45.146-18.776 11.992-11.99 18.632-28.014 18.632-45.056 0-35.168-28.608-63.78-63.78-63.78H147.9V312.7h16.976c17.106 0 33.138-6.67 45.152-18.782 11.988-11.99 18.628-28.014 18.628-45.05 0-35.196-28.608-63.832-63.78-63.832H147.9V108.662c0-14.068 11.446-25.512 25.512-25.512h88.65V948.88H173.412z" fill="#F58E6F" /><path d="M607.374 512.458c-53.392 0-96.828-43.354-96.828-96.64s43.436-96.638 96.828-96.638 96.828 43.35 96.828 96.638-43.436 96.64-96.828 96.64z m0-177.268c-44.562 0-80.818 36.168-80.818 80.628s36.254 80.63 80.818 80.63c44.562 0 80.818-36.172 80.818-80.63s-36.254-80.628-80.818-80.628z" fill="#4A555F" /><path d="M607.374 479.124c-34.264 0-62.138-28.398-62.138-63.306 0-34.906 27.874-63.306 62.138-63.306 34.264 0 62.138 28.4 62.138 63.306 0 34.908-27.874 63.306-62.138 63.306z" fill="#F58E6F" /><path d="M607.364 699.144c-69.242 0-133.802-37.238-168.484-97.184a8.002 8.002 0 0 1-0.646-6.582c20.108-59.178 73.902-98.936 133.854-98.936h70.606c59.98 0 113.752 39.762 133.808 98.942a8.018 8.018 0 0 1-0.652 6.578c-34.678 59.944-99.24 97.182-168.486 97.182z m-152.754-102.048c32.242 53.168 90.428 86.038 152.754 86.038s120.518-32.874 152.764-86.04c-18.726-50.778-65.478-84.64-117.432-84.64h-70.606c-51.934-0.002-98.706 33.86-117.48 84.642z" fill="#4A555F" /><path d="M607.364 664.454c-52.704 0-102.108-26.254-131.754-69.272 17.85-38.76 55.29-64.048 96.48-64.048h70.608c41.206 0 78.624 25.284 96.438 64.036-29.654 43.024-79.058 69.284-131.772 69.284z" fill="#F58E6F" /><path d="M607.374 699.156c-107.362 0-194.704-87.346-194.704-194.704 0-107.362 87.342-194.708 194.704-194.708s194.704 87.346 194.704 194.708c0.002 107.36-87.342 194.704-194.704 194.704z m0-373.4c-98.532 0-178.694 80.164-178.694 178.696s80.16 178.694 178.694 178.694 178.694-80.16 178.694-178.694-80.16-178.696-178.694-178.696z" fill="#4A555F" /><path d="M164.856 285.99H76.404c-20.502 0-37.124-16.62-37.124-37.124 0-20.502 16.62-37.124 37.124-37.124h88.452c20.502 0 37.124 16.62 37.124 37.124-0.002 20.504-16.622 37.124-37.124 37.124zM164.856 463.152H76.404c-20.502 0-37.124-16.62-37.124-37.124 0-20.502 16.62-37.124 37.124-37.124h88.452c20.502 0 37.124 16.62 37.124 37.124-0.002 20.504-16.622 37.124-37.124 37.124zM164.856 640.314H76.404c-20.502 0-37.124-16.62-37.124-37.124 0-20.502 16.62-37.124 37.124-37.124h88.452c20.502 0 37.124 16.62 37.124 37.124-0.002 20.504-16.622 37.124-37.124 37.124zM164.856 817.476H76.404c-20.502 0-37.124-16.62-37.124-37.124 0-20.502 16.62-37.124 37.124-37.124h88.452c20.502 0 37.124 16.62 37.124 37.124-0.002 20.502-16.622 37.124-37.124 37.124z" fill="#DFDFDF" /><path d="M164.854 293.996H76.402c-24.882 0-45.126-20.244-45.126-45.128s20.244-45.13 45.126-45.13h88.452c24.888 0 45.13 20.246 45.13 45.13s-20.242 45.128-45.13 45.128z m-88.452-74.248c-16.052 0-29.114 13.064-29.114 29.12s13.062 29.116 29.114 29.116h88.452c16.058 0 29.12-13.062 29.12-29.116s-13.062-29.12-29.12-29.12H76.402zM164.854 471.158H76.402c-24.882 0-45.126-20.244-45.126-45.128S51.52 380.9 76.402 380.9h88.452c24.888 0 45.13 20.246 45.13 45.13 0.002 24.884-20.242 45.128-45.13 45.128z m-88.452-74.248c-16.052 0-29.114 13.064-29.114 29.12s13.062 29.116 29.114 29.116h88.452c16.058 0 29.12-13.062 29.12-29.116 0-16.056-13.062-29.12-29.12-29.12H76.402zM164.854 648.318H76.402c-24.882 0-45.126-20.244-45.126-45.128s20.244-45.128 45.126-45.128h88.452c24.888 0 45.13 20.244 45.13 45.128s-20.242 45.128-45.13 45.128z m-88.452-74.244c-16.052 0-29.114 13.062-29.114 29.116 0 16.056 13.062 29.116 29.114 29.116h88.452c16.058 0 29.12-13.062 29.12-29.116 0-16.056-13.062-29.116-29.12-29.116H76.402zM164.854 825.48H76.402c-24.882 0-45.126-20.244-45.126-45.128s20.244-45.128 45.126-45.128h88.452c24.888 0 45.13 20.244 45.13 45.128S189.742 825.48 164.854 825.48z m-88.452-74.246c-16.052 0-29.114 13.062-29.114 29.116s13.062 29.116 29.114 29.116h88.452c16.058 0 29.12-13.062 29.12-29.116s-13.062-29.116-29.12-29.116H76.402zM992.724 290.272h-16.012v-16.012h16.012v16.012z m0-32.022h-16.012v-16.012h16.012v16.012z m0-32.022h-16.012v-16.012h16.012v16.012z m0-32.024h-16.012v-16.012h16.012v16.012z m0-32.022h-16.012v-16.012h16.012v16.012z m0-32.022h-16.012v-16.012h16.012v16.012z m0-32.024h-16.012v-5.95c0-3.026-0.182-6.086-0.536-9.092l15.896-1.886c0.432 3.63 0.652 7.326 0.652 10.98v5.948z m-19.612-29.168a75.796 75.796 0 0 0-5.692-13.278l14.042-7.688a91.226 91.226 0 0 1 6.9 16.098l-15.25 4.868z m-13.818-25.258a76.866 76.866 0 0 0-10.22-10.236l10.206-12.336a93.012 93.012 0 0 1 12.368 12.384l-12.354 10.188z m-22.188-18.366a75.946 75.946 0 0 0-13.286-5.71l4.888-15.246a91.956 91.956 0 0 1 16.09 6.914l-7.692 14.042z m-27.404-8.788a76.94 76.94 0 0 0-9.162-0.544h-5.868V0h5.868c3.71 0 7.438 0.222 11.07 0.66l-1.908 15.896z m-31.042-0.544h-16.012V0h16.012v16.012z m-32.024 0h-16.012V0h16.012v16.012z m-32.022 0h-16.012V0h16.012v16.012zM378.104 1024h-16.012v-16.012h16.012V1024z m-32.022 0h-16.012v-16.012h16.012V1024z m-32.024 0h-16.012v-16.012h16.012V1024z m-32.022 0h-16.012v-16.012h16.012V1024z m-32.022 0h-16.012v-16.012h16.012V1024z m-32.024 0h-16.012v-16.012h16.012V1024z" fill="#4A555F" /></svg>