<?xml version="1.0" standalone="no"?><!DOCTYPE svg PUBLIC "-//W3C//DTD SVG 1.1//EN" "http://www.w3.org/Graphics/SVG/1.1/DTD/svg11.dtd"><svg class="icon" width="200px" height="200.00px" viewBox="0 0 1024 1024" version="1.1" xmlns="http://www.w3.org/2000/svg"><path fill="#ffffff" d="M512 1024C229.226667 1024 0 794.773333 0 512S229.226667 0 512 0s512 229.226667 512 512-229.226667 512-512 512z m0-64c247.424 0 448-200.576 448-448S759.424 64 512 64 64 264.576 64 512s200.576 448 448 448z"  /><path fill="#ffffff" d="M687.616 392.704v-39.936h-65.024v39.936h65.024z m0 68.096v-40.96h-65.024v40.96h65.024z m-166.4-40.96v40.96h66.048v-40.96h-66.048z m0-67.072v39.936h66.048v-39.936h-66.048z m201.216-28.672v164.864H487.424v-164.864h99.84v-48.64h35.328v48.64h99.84zM346.624 622.08l66.56-14.336v-67.072h-66.56v81.408z m66.56-289.792h-66.56v70.656h66.56v-70.656z m-66.56 102.912v73.216h66.56V435.2h-66.56z m129.024 159.232l2.56 33.28-30.72 6.656v107.52h-34.304v-99.84c-47.104 10.752-92.672 20.992-129.024 29.184l-7.168-35.328c10.752-2.048 23.04-4.608 35.84-7.168V332.288h-31.744v-34.816h196.096v34.816h-29.696v268.288l28.16-6.144z m270.336-38.912h-176.64c-3.584 15.36-8.192 31.744-12.288 46.08h162.816s-0.512 10.752-1.536 15.872c-7.68 67.072-14.848 96.256-28.16 108.544-9.728 9.216-19.456 11.776-34.816 12.8-12.8 1.024-39.936 0.512-67.584-0.512-1.024-11.264-5.12-25.088-11.776-34.816 27.648 2.56 55.296 3.072 65.536 3.072 9.216 0 14.848-0.512 18.944-4.608 8.192-6.656 14.336-26.112 19.968-68.608h-172.032c8.192-21.504 16.384-50.176 23.552-77.824h-68.096v-32.256h282.112v32.256z"  /></svg>